<?xml version="1.0" encoding="utf-8"?>
<!-- Generator: Adobe Illustrator 15.1.0, SVG Export Plug-In . SVG Version: 6.00 Build 0)  -->
<!DOCTYPE svg PUBLIC "-//W3C//DTD SVG 1.1//EN" "http://www.w3.org/Graphics/SVG/1.1/DTD/svg11.dtd">
<svg version="1.1" xmlns="http://www.w3.org/2000/svg" xmlns:xlink="http://www.w3.org/1999/xlink" x="0px" y="0px" width="820px"
	 height="462px" viewBox="0 0 820 462" enable-background="new 0 0 820 462" xml:space="preserve">
<g id="Layer_1">
	<path fill="none" stroke="#E4E9EF" stroke-miterlimit="10" d="M440.572,177.246c0,24.25-15.156,42.011-34.979,49.865
		c28.372,5.807,49.358,23.57,49.358,51.233c0,40.987-27.594,63.188-69.571,66.944c-17.1,1.706-38.089,1.706-66.851,1.706h-30.317
		c-14.38,0-21.375-8.878-22.153-22.199l0.388-61.139v-69.334c0-20.151-1.166-38.597-1.166-58.749
		c0-10.586,7.773-18.101,20.599-19.467c17.878-2.05,49.749-1.708,68.406-1.708C402.873,114.399,440.184,138.31,440.572,177.246z"/>
	<path fill="none" stroke="#E4E9EF" stroke-miterlimit="10" d="M288.213,342.268c-10.411,0-16.052-5.916-16.772-17.581l0.389-61.003
		v-69.36c0-10.138-0.297-19.98-0.585-29.5c-0.287-9.456-0.583-19.234-0.583-29.249c0-8.312,5.784-13.699,15.864-14.772
		c13.118-1.501,34.535-1.694,51.732-1.694l16.029,0.021c48.044,0,80.556,23.373,80.904,58.156c0,20.589-11.89,37.621-31.812,45.516
		l-14.498,5.747l15.49,3.169c28.303,5.79,45.201,23.221,45.201,46.627c0,36.399-22.994,58.504-64.738,62.238
		c-16.858,1.685-37.599,1.685-66.304,1.685H288.213z"/>
	<path fill="none" stroke="#E4E9EF" stroke-miterlimit="10" d="M288.213,337.537c-5.216,0-10.641-1.542-11.39-12.97l0.385-60.855
		v-69.389c0-10.237-0.297-20.092-0.584-29.626c-0.285-9.458-0.581-19.187-0.581-29.123c0-5.899,3.746-9.292,11.13-10.076
		c12.855-1.473,34.051-1.663,51.085-1.663l16.02,0.02c44.862,0,75.214,21.493,75.533,53.471c0,18.655-10.707,34.055-28.644,41.165
		l-28.995,11.494l30.981,6.337c25.695,5.255,41.039,20.966,41.039,42.022c0,34.131-20.717,54.027-59.903,57.536
		c-16.615,1.656-37.228,1.656-65.758,1.656H288.213z"/>
	<path fill="none" stroke="#E4E9EF" stroke-miterlimit="10" d="M288.213,332.812c-2.667,0-5.427,0-6.007-8.369l0.384-60.709v-69.41
		c0-10.283-0.297-20.159-0.584-29.707c-0.288-9.484-0.583-19.187-0.583-29.042c0-2.977,1.046-4.811,6.398-5.381
		c12.604-1.444,33.574-1.63,50.438-1.63l16.012,0.021c41.675,0,69.869,19.603,70.161,48.784c0,16.711-9.524,30.486-25.477,36.81
		l-43.497,17.243l46.475,9.504c23.092,4.728,36.877,18.711,36.877,37.418c0,31.788-18.527,49.561-55.066,52.83
		c-16.374,1.637-36.861,1.637-65.212,1.637H288.213z"/>
	<path fill="none" stroke="#E4E9EF" stroke-miterlimit="10" d="M288.22,328.084c-0.204-0.601-0.481-1.741-0.631-3.775l0.384-60.546
		v-69.439c0-10.33-0.3-20.223-0.586-29.788c-0.288-9.579-0.582-19.237-0.582-28.961c0-0.162,0.006-0.299,0.014-0.406
		c0.312-0.083,0.832-0.192,1.649-0.278c12.343-1.414,33.09-1.599,49.791-1.599l16.003,0.021c38.492,0,64.521,17.721,64.789,44.095
		c0,14.775-8.342,26.924-22.31,32.462l-57.996,22.988l61.966,12.675c20.791,4.257,32.717,16.214,32.717,32.812
		c0,29.359-16.432,45.102-50.23,48.124c-16.135,1.615-36.49,1.615-64.667,1.615H288.22z"/>
	<path fill="none" stroke="#E4E9EF" stroke-miterlimit="10" d="M292.977,323.354l0.375-59.565v-69.465
		c0-10.38-0.297-20.292-0.584-29.88c-0.25-8.279-0.506-16.742-0.568-25.174c12.292-1.097,30.859-1.247,46.059-1.247l15.994,0.021
		c35.304,0,59.18,15.837,59.416,39.407c0,12.834-7.155,23.354-19.141,28.11l-72.493,28.735l77.458,15.844
		c18.415,3.771,28.556,13.784,28.556,28.205c0,26.851-14.427,40.649-45.398,43.42c-15.893,1.589-36.12,1.589-64.12,1.589H292.977z"
		/>
	<path fill="none" stroke="#E4E9EF" stroke-miterlimit="10" d="M298.388,318.624l0.345-54.81v-69.491
		c0-10.427-0.297-20.36-0.585-29.961c-0.206-6.842-0.415-13.817-0.519-20.757c11.875-0.749,27.683-0.855,40.63-0.855l15.983,0.021
		c32.124,0,53.838,13.956,54.046,34.722c0,10.891-5.972,19.79-15.972,23.755l-86.995,34.484l92.95,19.012
		c11.129,2.28,24.397,8.225,24.397,23.601c0,24.267-12.512,36.207-40.564,38.713c-15.655,1.566-35.753,1.566-63.574,1.566H298.388z"
		/>
	<path fill="none" stroke="#E4E9EF" stroke-miterlimit="10" d="M303.799,313.896l0.313-50.058v-23.496l92.938,19.009
		c13.427,2.751,20.235,9.145,20.235,18.994c0,21.888-10.349,31.74-35.723,34.007c-15.42,1.544-35.388,1.544-63.032,1.544H303.799z
		 M304.112,194.323c0-10.478-0.296-20.43-0.585-30.051c-0.163-5.391-0.325-10.812-0.438-16.219
		c11.073-0.504,24.375-0.573,35.169-0.573l15.977,0.019c28.936,0,48.492,12.069,48.671,30.032c0,8.959-4.788,16.229-12.805,19.408
		l-85.989,34.081V194.323z"/>
	<path fill="none" stroke="#E4E9EF" stroke-miterlimit="10" d="M309.211,309.171l0.284-45.307v-17.568l86.333,17.656
		c14.41,2.958,16.077,9.632,16.077,14.393c0,19.349-8.37,27.291-30.89,29.303c-15.177,1.523-35.021,1.523-62.485,1.523H309.211z
		 M309.495,194.323c0-10.527-0.299-20.503-0.586-30.146c-0.118-3.944-0.234-7.79-0.332-11.603
		c9.895-0.321,20.853-0.369,29.681-0.369l15.967,0.021c25.751,0,43.148,10.185,43.301,25.347c0,7.018-3.603,12.661-9.638,15.055
		l-78.393,31.073V194.323z"/>
	<path fill="none" stroke="#E4E9EF" stroke-miterlimit="10" d="M314.624,304.44l0.253-40.55v-11.639l79.733,16.307
		c11.916,2.447,11.916,7.221,11.916,9.786c0,16.858-6.329,22.836-26.052,24.597c-14.941,1.499-34.655,1.499-61.942,1.499H314.624z
		 M314.876,194.323c0-10.577-0.299-20.567-0.585-30.229c0,0-0.151-4.951-0.208-6.939c8.427-0.19,17.162-0.219,24.175-0.219
		l15.958,0.021c22.566,0,37.803,8.301,37.929,20.66c0,5.08-2.42,9.097-6.471,10.701l-70.797,28.065V194.323z"/>
	<path fill="none" stroke="#E4E9EF" stroke-miterlimit="10" d="M320.255,263.917v-5.712l73.133,14.96
		c7.755,1.59,7.755,3.495,7.755,5.18c0,14.466-4.164,18.369-21.213,19.893c-14.433,1.446-33.563,1.476-59.896,1.476L320.255,263.917
		z M320.255,194.323c0-10.622-0.297-20.631-0.587-30.311l-0.063-2.23c6.741-0.103,13.349-0.119,18.653-0.119l15.951,0.021
		c19.379,0,32.46,6.419,32.556,15.97c0,3.095-1.268,5.545-3.304,6.355l-63.206,25.05V194.323z"/>
	<path fill="none" stroke="#E4E9EF" stroke-miterlimit="10" d="M325.638,264.164l66.531,13.605c1.921,0.397,3.009,0.751,3.593,0.988
		c-0.047,11.689-2.157,13.507-16.376,14.772c-13.418,1.345-31.414,1.445-53.941,1.452L325.638,264.164z M325.638,194.323
		c0-9.781-0.249-18.982-0.513-27.88c4.765-0.043,9.29-0.05,13.133-0.05l15.94,0.021c15.691,0,27.118,4.744,27.187,11.282
		c0,1.141-0.287,1.846-0.457,2.129l-55.29,21.917V194.323z"/>
	<path fill="none" stroke="#E4E9EF" stroke-miterlimit="10" d="M330.98,270.112l59.35,12.139c-0.245,5.57-1.714,5.706-11.486,6.576
		c-12.065,1.206-27.662,1.395-47.989,1.42L330.98,270.112z M331.017,194.323c0-8.047-0.169-15.811-0.373-23.188
		c2.723-0.012,5.293-0.015,7.615-0.015l15.933,0.019c12.606,0,19.773,3.21,21.435,5.6l-44.61,17.683V194.323z"/>
	<path fill="none" stroke="#E4E9EF" stroke-miterlimit="10" d="M336.327,276.06l40.222,8.229
		c-10.057,0.897-22.731,1.154-40.286,1.219L336.327,276.06z M336.357,187.117c-0.046-4-0.125-7.823-0.208-11.266
		c0.722-0.002,18.033,0.019,18.033,0.019c3.545,0,6.475,0.275,8.85,0.672L336.357,187.117z"/>
	<path fill="none" stroke="#ABCEC4" stroke-miterlimit="10" d="M389.748,177.246c0,24.25-15.159,42.011-34.979,49.865
		c28.372,5.807,49.358,23.57,49.358,51.233c0,40.987-27.592,63.188-69.571,66.944c-17.099,1.706-38.089,1.706-66.851,1.706h-30.316
		c-14.381,0-21.377-8.878-22.153-22.199l0.387-61.139v-69.334c0-20.151-1.167-38.597-1.167-58.749
		c0-10.586,7.774-18.101,20.6-19.467c17.88-2.05,49.75-1.708,68.406-1.708C352.049,114.399,389.36,138.31,389.748,177.246z"/>
	<path fill="none" stroke="#ABCEC4" stroke-miterlimit="10" d="M237.389,342.268c-10.41,0-16.052-5.916-16.772-17.581l0.388-61.003
		v-69.36c0-10.138-0.296-19.98-0.585-29.5c-0.285-9.456-0.581-19.234-0.581-29.249c0-8.312,5.784-13.699,15.864-14.772
		c13.116-1.501,34.535-1.694,51.731-1.694l16.029,0.021c48.044,0,80.559,23.373,80.904,58.156c0,20.589-11.891,37.621-31.811,45.516
		l-14.499,5.747l15.491,3.169c28.303,5.79,45.198,23.221,45.198,46.627c0,36.399-22.991,58.504-64.736,62.238
		c-16.858,1.685-37.598,1.685-66.304,1.685H237.389z"/>
	<path fill="none" stroke="#ABCEC4" stroke-miterlimit="10" d="M237.389,337.537c-5.215,0-10.643-1.542-11.39-12.97l0.385-60.855
		v-69.389c0-10.237-0.297-20.092-0.585-29.626c-0.287-9.458-0.582-19.187-0.582-29.123c0-5.899,3.746-9.292,11.132-10.076
		c12.854-1.473,34.052-1.663,51.083-1.663l16.022,0.02c44.861,0,75.209,21.493,75.531,53.471c0,18.655-10.708,34.055-28.644,41.165
		l-28.998,11.494l30.982,6.337c25.696,5.255,41.039,20.966,41.039,42.022c0,34.131-20.715,54.027-59.901,57.536
		c-16.615,1.656-37.228,1.656-65.76,1.656H237.389z"/>
	<path fill="none" stroke="#ABCEC4" stroke-miterlimit="10" d="M237.389,332.812c-2.67,0-5.427,0-6.009-8.369l0.387-60.709v-69.41
		c0-10.283-0.299-20.159-0.588-29.707c-0.285-9.484-0.58-19.187-0.58-29.042c0-2.977,1.046-4.811,6.396-5.381
		c12.603-1.444,33.575-1.63,50.438-1.63l16.012,0.021c41.673,0,69.87,19.603,70.161,48.784c0,16.711-9.523,30.486-25.476,36.81
		l-43.497,17.243l46.474,9.504c23.091,4.728,36.879,18.711,36.879,37.418c0,31.788-18.528,49.561-55.067,52.83
		c-16.374,1.637-36.861,1.637-65.213,1.637H237.389z"/>
	<path fill="none" stroke="#ABCEC4" stroke-miterlimit="10" d="M237.396,328.084c-0.207-0.601-0.481-1.741-0.633-3.775l0.383-60.546
		v-69.439c0-10.33-0.297-20.223-0.584-29.788c-0.291-9.579-0.582-19.237-0.582-28.961c0-0.162,0.005-0.299,0.014-0.406
		c0.312-0.083,0.832-0.192,1.649-0.278c12.342-1.414,33.09-1.599,49.79-1.599l16.002,0.021c38.493,0,64.524,17.721,64.791,44.095
		c0,14.775-8.343,26.924-22.309,32.462l-57.996,22.988l61.965,12.675c20.792,4.257,32.718,16.214,32.718,32.812
		c0,29.359-16.432,45.102-50.231,48.124c-16.133,1.615-36.488,1.615-64.667,1.615H237.396z"/>
	<path fill="none" stroke="#ABCEC4" stroke-miterlimit="10" d="M242.151,323.354l0.376-59.565v-69.465
		c0-10.38-0.297-20.292-0.585-29.88c-0.249-8.279-0.504-16.742-0.566-25.174c12.291-1.097,30.859-1.247,46.058-1.247l15.995,0.021
		c35.303,0,59.178,15.837,59.416,39.407c0,12.834-7.156,23.354-19.141,28.11l-72.494,28.735l77.459,15.844
		c18.413,3.771,28.555,13.784,28.555,28.205c0,26.851-14.426,40.649-45.396,43.42c-15.895,1.589-36.122,1.589-64.121,1.589H242.151z
		"/>
	<path fill="none" stroke="#ABCEC4" stroke-miterlimit="10" d="M247.562,318.624l0.345-54.81v-69.491
		c0-10.427-0.297-20.36-0.584-29.961c-0.207-6.842-0.415-13.817-0.519-20.757c11.874-0.749,27.682-0.855,40.629-0.855l15.986,0.021
		c32.122,0,53.837,13.956,54.043,34.722c0,10.891-5.969,19.79-15.972,23.755l-86.995,34.484l92.95,19.012
		c11.131,2.28,24.397,8.225,24.397,23.601c0,24.267-12.511,36.207-40.562,38.713c-15.655,1.566-35.754,1.566-63.575,1.566H247.562z"
		/>
	<path fill="none" stroke="#ABCEC4" stroke-miterlimit="10" d="M252.975,313.896l0.313-50.058v-23.496l92.938,19.009
		c13.426,2.751,20.235,9.145,20.235,18.994c0,21.888-10.349,31.74-35.725,34.007c-15.418,1.544-35.388,1.544-63.032,1.544H252.975z
		 M253.289,194.323c0-10.478-0.297-20.43-0.584-30.051c-0.164-5.391-0.327-10.812-0.438-16.219
		c11.071-0.504,24.374-0.573,35.167-0.573l15.975,0.019c28.937,0,48.493,12.069,48.674,30.032c0,8.959-4.789,16.229-12.805,19.408
		l-85.989,34.081V194.323z"/>
	<path fill="none" stroke="#ABCEC4" stroke-miterlimit="10" d="M258.385,309.171l0.285-45.307v-17.568l86.335,17.656
		c14.408,2.958,16.075,9.632,16.075,14.393c0,19.349-8.369,27.291-30.888,29.303c-15.18,1.523-35.021,1.523-62.487,1.523H258.385z
		 M258.67,194.323c0-10.527-0.297-20.503-0.585-30.146c-0.118-3.944-0.237-7.79-0.332-11.603c9.894-0.321,20.851-0.369,29.68-0.369
		l15.968,0.021c25.751,0,43.148,10.185,43.301,25.347c0,7.018-3.604,12.661-9.64,15.055l-78.393,31.073V194.323z"/>
	<path fill="none" stroke="#ABCEC4" stroke-miterlimit="10" d="M263.797,304.44l0.253-40.55v-11.639l79.735,16.307
		c11.914,2.447,11.914,7.221,11.914,9.786c0,16.858-6.329,22.836-26.052,24.597c-14.942,1.499-34.654,1.499-61.942,1.499H263.797z
		 M264.05,194.323c0-10.577-0.297-20.567-0.585-30.229c0,0-0.15-4.951-0.206-6.939c8.427-0.19,17.161-0.219,24.174-0.219
		l15.959,0.021c22.565,0,37.803,8.301,37.929,20.66c0,5.08-2.421,9.097-6.471,10.701l-70.8,28.065V194.323z"/>
	<path fill="none" stroke="#ABCEC4" stroke-miterlimit="10" d="M269.432,263.917v-5.712l73.133,14.96
		c7.755,1.59,7.755,3.495,7.755,5.18c0,14.466-4.165,18.369-21.214,19.893c-14.432,1.446-33.564,1.476-59.897,1.476L269.432,263.917
		z M269.432,194.323c0-10.622-0.297-20.631-0.587-30.311l-0.063-2.23c6.74-0.103,13.347-0.119,18.652-0.119l15.951,0.021
		c19.38,0,32.461,6.419,32.556,15.97c0,3.095-1.268,5.545-3.303,6.355l-63.206,25.05V194.323z"/>
	<path fill="none" stroke="#ABCEC4" stroke-miterlimit="10" d="M274.814,264.164l66.53,13.605c1.921,0.397,3.01,0.751,3.593,0.988
		c-0.044,11.689-2.155,13.507-16.375,14.772c-13.418,1.345-31.415,1.445-53.941,1.452L274.814,264.164z M274.814,194.323
		c0-9.781-0.25-18.982-0.514-27.88c4.767-0.043,9.291-0.05,13.133-0.05l15.942,0.021c15.69,0,27.117,4.744,27.184,11.282
		c0,1.141-0.288,1.846-0.454,2.129l-55.292,21.917V194.323z"/>
	<path fill="none" stroke="#ABCEC4" stroke-miterlimit="10" d="M280.155,270.112l59.349,12.139
		c-0.245,5.57-1.713,5.706-11.484,6.576c-12.065,1.206-27.662,1.395-47.991,1.42L280.155,270.112z M280.193,194.323
		c0-8.047-0.169-15.811-0.375-23.188c2.721-0.012,5.295-0.015,7.615-0.015l15.932,0.019c12.608,0,19.776,3.21,21.435,5.6
		l-44.607,17.683V194.323z"/>
	<path fill="none" stroke="#ABCEC4" stroke-miterlimit="10" d="M285.501,276.06l40.223,8.229
		c-10.057,0.897-22.733,1.154-40.286,1.219L285.501,276.06z M285.534,187.117c-0.047-4-0.125-7.823-0.208-11.266
		c0.72-0.002,18.031,0.019,18.031,0.019c3.547,0,6.476,0.275,8.849,0.672L285.534,187.117z"/>
	<path fill="none" stroke="#EF4136" stroke-miterlimit="10" d="M335.933,177.246c0,24.25-15.157,42.011-34.98,49.865
		c28.374,5.807,49.36,23.57,49.36,51.233c0,40.987-27.592,63.188-69.57,66.944c-17.101,1.706-38.09,1.706-66.851,1.706h-30.319
		c-14.381,0-21.376-8.878-22.152-22.199l0.388-61.139v-69.334c0-20.151-1.167-38.597-1.167-58.749
		c0-10.586,7.772-18.101,20.6-19.467c17.88-2.05,49.75-1.708,68.406-1.708C298.233,114.399,335.545,138.31,335.933,177.246z"/>
	<path fill="none" stroke="#EF4136" stroke-miterlimit="10" d="M183.574,342.268c-10.408,0-16.051-5.916-16.771-17.581l0.386-61.003
		v-69.36c0-10.138-0.296-19.98-0.584-29.5c-0.285-9.456-0.581-19.234-0.581-29.249c0-8.312,5.784-13.699,15.866-14.772
		c13.115-1.501,34.534-1.694,51.729-1.694l16.029,0.021c48.044,0,80.557,23.373,80.905,58.156c0,20.589-11.892,37.621-31.812,45.516
		l-14.499,5.747l15.492,3.169c28.304,5.79,45.198,23.221,45.198,46.627c0,36.399-22.991,58.504-64.735,62.238
		c-16.858,1.685-37.599,1.685-66.304,1.685H183.574z"/>
	<path fill="none" stroke="#EF4136" stroke-miterlimit="10" d="M183.574,337.537c-5.215,0-10.641-1.542-11.389-12.97l0.386-60.855
		v-69.389c0-10.237-0.298-20.092-0.587-29.626c-0.285-9.458-0.58-19.187-0.58-29.123c0-5.899,3.746-9.292,11.132-10.076
		c12.854-1.473,34.051-1.663,51.083-1.663l16.02,0.02c44.864,0,75.212,21.493,75.534,53.471c0,18.655-10.71,34.055-28.645,41.165
		l-28.997,11.494l30.982,6.337c25.695,5.255,41.04,20.966,41.04,42.022c0,34.131-20.717,54.027-59.902,57.536
		c-16.617,1.656-37.229,1.656-65.758,1.656H183.574z"/>
	<path fill="none" stroke="#EF4136" stroke-miterlimit="10" d="M183.574,332.812c-2.667,0-5.427,0-6.007-8.369l0.384-60.709v-69.41
		c0-10.283-0.297-20.159-0.585-29.707c-0.285-9.484-0.58-19.187-0.58-29.042c0-2.977,1.046-4.811,6.396-5.381
		c12.605-1.444,33.574-1.63,50.438-1.63l16.012,0.021c41.673,0,69.87,19.603,70.161,48.784c0,16.711-9.524,30.486-25.477,36.81
		l-43.496,17.243l46.475,9.504c23.09,4.728,36.876,18.711,36.876,37.418c0,31.788-18.527,49.561-55.067,52.83
		c-16.372,1.637-36.86,1.637-65.211,1.637H183.574z"/>
	<path fill="none" stroke="#EF4136" stroke-miterlimit="10" d="M183.582,328.084c-0.207-0.601-0.481-1.741-0.633-3.775l0.383-60.546
		v-69.439c0-10.33-0.297-20.223-0.584-29.788c-0.291-9.579-0.583-19.237-0.583-28.961c0-0.162,0.007-0.299,0.013-0.406
		c0.312-0.083,0.832-0.192,1.649-0.278c12.344-1.414,33.093-1.599,49.791-1.599l16.002,0.021c38.493,0,64.523,17.721,64.79,44.095
		c0,14.775-8.342,26.924-22.308,32.462l-57.997,22.988l61.965,12.675c20.79,4.257,32.718,16.214,32.718,32.812
		c0,29.359-16.432,45.102-50.233,48.124c-16.132,1.615-36.489,1.615-64.665,1.615H183.582z"/>
	<path fill="none" stroke="#EF4136" stroke-miterlimit="10" d="M188.337,323.354l0.376-59.565v-69.465
		c0-10.38-0.297-20.292-0.585-29.88c-0.25-8.279-0.505-16.742-0.566-25.174c12.289-1.097,30.858-1.247,46.058-1.247l15.993,0.021
		c35.306,0,59.181,15.837,59.417,39.407c0,12.834-7.156,23.354-19.14,28.11l-72.494,28.735l77.458,15.844
		c18.414,3.771,28.557,13.784,28.557,28.205c0,26.851-14.427,40.649-45.399,43.42c-15.894,1.589-36.121,1.589-64.119,1.589H188.337z
		"/>
	<path fill="none" stroke="#EF4136" stroke-miterlimit="10" d="M193.75,318.624l0.343-54.81v-69.491
		c0-10.427-0.297-20.36-0.584-29.961c-0.207-6.842-0.417-13.817-0.519-20.757c11.874-0.749,27.68-0.855,40.629-0.855l15.986,0.021
		c32.122,0,53.837,13.956,54.044,34.722c0,10.891-5.971,19.79-15.973,23.755l-86.994,34.484l92.95,19.012
		c11.129,2.28,24.395,8.225,24.395,23.601c0,24.267-12.509,36.207-40.561,38.713c-15.656,1.566-35.753,1.566-63.574,1.566H193.75z"
		/>
	<path fill="none" stroke="#EF4136" stroke-miterlimit="10" d="M199.161,313.896l0.313-50.058v-23.496l92.938,19.009
		c13.425,2.751,20.233,9.145,20.233,18.994c0,21.888-10.348,31.74-35.723,34.007c-15.418,1.544-35.389,1.544-63.03,1.544H199.161z
		 M199.475,194.323c0-10.478-0.297-20.43-0.585-30.051c-0.163-5.391-0.326-10.812-0.438-16.219
		c11.071-0.504,24.374-0.573,35.167-0.573l15.977,0.019c28.936,0,48.492,12.069,48.673,30.032c0,8.959-4.789,16.229-12.805,19.408
		l-85.989,34.081V194.323z"/>
	<path fill="none" stroke="#EF4136" stroke-miterlimit="10" d="M204.572,309.171l0.283-45.307v-17.568l86.336,17.656
		c14.408,2.958,16.075,9.632,16.075,14.393c0,19.349-8.372,27.291-30.889,29.303c-15.178,1.523-35.021,1.523-62.484,1.523H204.572z
		 M204.855,194.323c0-10.527-0.297-20.503-0.584-30.146c-0.118-3.944-0.237-7.79-0.333-11.603
		c9.895-0.321,20.852-0.369,29.681-0.369l15.968,0.021c25.751,0,43.147,10.185,43.3,25.347c0,7.018-3.603,12.661-9.637,15.055
		l-78.396,31.073V194.323z"/>
	<path fill="none" stroke="#EF4136" stroke-miterlimit="10" d="M209.983,304.44l0.253-40.55v-11.639l79.734,16.307
		c11.915,2.447,11.915,7.221,11.915,9.786c0,16.858-6.329,22.836-26.051,24.597c-14.942,1.499-34.655,1.499-61.941,1.499H209.983z
		 M210.236,194.323c0-10.577-0.297-20.567-0.585-30.229c0,0-0.148-4.951-0.206-6.939c8.426-0.19,17.161-0.219,24.174-0.219
		l15.959,0.021c22.565,0,37.802,8.301,37.929,20.66c0,5.08-2.421,9.097-6.471,10.701l-70.8,28.065V194.323z"/>
	<path fill="none" stroke="#EF4136" stroke-miterlimit="10" d="M215.618,263.917v-5.712l73.133,14.96
		c7.755,1.59,7.755,3.495,7.755,5.18c0,14.466-4.166,18.369-21.216,19.893c-14.43,1.446-33.563,1.476-59.894,1.476L215.618,263.917z
		 M215.618,194.323c0-10.622-0.299-20.631-0.587-30.311l-0.064-2.23c6.742-0.103,13.347-0.119,18.653-0.119l15.95,0.021
		c19.381,0,32.46,6.419,32.557,15.97c0,3.095-1.268,5.545-3.302,6.355l-63.206,25.05V194.323z"/>
	<path fill="none" stroke="#EF4136" stroke-miterlimit="10" d="M220.998,264.164l66.531,13.605c1.922,0.397,3.012,0.751,3.595,0.988
		c-0.046,11.689-2.158,13.507-16.375,14.772c-13.419,1.345-31.415,1.445-53.941,1.452L220.998,264.164z M220.998,194.323
		c0-9.781-0.246-18.982-0.511-27.88c4.766-0.043,9.291-0.05,13.132-0.05l15.941,0.021c15.69,0,27.118,4.744,27.184,11.282
		c0,1.141-0.287,1.846-0.456,2.129l-55.292,21.917V194.323z"/>
	<path fill="none" stroke="#EF4136" stroke-miterlimit="10" d="M226.341,270.112l59.351,12.139
		c-0.245,5.57-1.715,5.706-11.487,6.576c-12.063,1.206-27.66,1.395-47.99,1.42L226.341,270.112z M226.38,194.323
		c0-8.047-0.17-15.811-0.376-23.188c2.723-0.012,5.294-0.015,7.615-0.015l15.933,0.019c12.605,0,19.774,3.21,21.435,5.6
		l-44.607,17.683V194.323z"/>
	<path fill="none" stroke="#EF4136" stroke-miterlimit="10" d="M231.686,276.06l40.225,8.229
		c-10.059,0.897-22.731,1.154-40.284,1.219L231.686,276.06z M231.718,187.117c-0.046-4-0.124-7.823-0.207-11.266
		c0.722-0.002,18.031,0.019,18.031,0.019c3.547,0,6.476,0.275,8.85,0.672L231.718,187.117z"/>
</g>
<g id="Layer_2" display="none">
	
		<text transform="matrix(0.9269 0 0 1 101.1348 347.6211)" display="inline" fill="#756B66" font-family="'Linotte-SemiBold'" font-size="344.8409">B21</text>
</g>
</svg>
